<svg width="25" height="25" viewBox="0 0 25 25" fill="none" xmlns="http://www.w3.org/2000/svg">
<path d="M20.54 10.2801C20.54 9.86585 20.2042 9.53007 19.79 9.53007C19.3758 9.53007 19.04 9.86585 19.04 10.2801H20.54ZM5.95999 10.2801C5.95999 9.86585 5.62421 9.53007 5.20999 9.53007C4.79578 9.53007 4.45999 9.86585 4.45999 10.2801H5.95999ZM15.0132 21.2681L14.8408 20.5382L15.0132 21.2681ZM9.98673 21.2681L10.1592 20.5382L9.98673 21.2681ZM15.3284 5.57526L14.7962 6.10371L15.3284 5.57526ZM20.9678 12.3192C21.2596 12.6131 21.7345 12.6148 22.0284 12.3229C22.3224 12.0311 22.3241 11.5562 22.0322 11.2623L20.9678 12.3192ZM9.67157 5.57526L10.2038 6.10371L9.67157 5.57526ZM2.96779 11.2623C2.67594 11.5562 2.67762 12.0311 2.97155 12.3229C3.26548 12.6148 3.74035 12.6131 4.03221 12.3192L2.96779 11.2623ZM10.2184 18.8813L9.4813 18.743L9.4813 18.743L10.2184 18.8813ZM10.2378 18.7783L10.9749 18.9167L10.9749 18.9167L10.2378 18.7783ZM14.7622 18.7783L14.0251 18.9167V18.9167L14.7622 18.7783ZM14.7816 18.8813L15.5187 18.743V18.743L14.7816 18.8813ZM14.4918 21.1129L13.8146 20.7906V20.7906L14.4918 21.1129ZM13.6978 21.036C13.5198 21.4101 13.6787 21.8575 14.0527 22.0355C14.4267 22.2135 14.8742 22.0546 15.0522 21.6806L13.6978 21.036ZM10.5082 21.1129L9.831 21.4352L9.831 21.4352L10.5082 21.1129ZM9.94778 21.6806C10.1258 22.0546 10.5733 22.2135 10.9473 22.0355C11.3213 21.8575 11.4802 21.41 11.3022 21.036L9.94778 21.6806ZM11.8611 17.0036L11.6605 16.2809H11.6605L11.8611 17.0036ZM13.1389 17.0036L13.3395 16.2809H13.3395L13.1389 17.0036ZM19.04 10.2801V15.1984H20.54V10.2801H19.04ZM5.95999 15.1984V10.2801H4.45999V15.1984H5.95999ZM14.8408 20.5382C13.3011 20.902 11.6988 20.902 10.1592 20.5382L9.8143 21.9981C11.5808 22.4154 13.4192 22.4154 15.1857 21.9981L14.8408 20.5382ZM10.1592 20.5382C7.7026 19.9579 5.95999 17.7487 5.95999 15.1984H4.45999C4.45999 18.4375 6.67421 21.2563 9.8143 21.9981L10.1592 20.5382ZM15.1857 21.9981C18.3258 21.2563 20.54 18.4375 20.54 15.1984H19.04C19.04 17.7487 17.2974 19.9579 14.8408 20.5382L15.1857 21.9981ZM14.7962 6.10371L20.9678 12.3192L22.0322 11.2623L15.8606 5.04682L14.7962 6.10371ZM9.13937 5.04682L2.96779 11.2623L4.03221 12.3192L10.2038 6.10371L9.13937 5.04682ZM15.8606 5.04682C15.2089 4.39049 14.6681 3.84349 14.1818 3.46989C13.6785 3.08315 13.1458 2.81104 12.5 2.81104V4.31104C12.6827 4.31104 12.8974 4.37463 13.2679 4.6593C13.6555 4.9571 14.1146 5.41722 14.7962 6.10371L15.8606 5.04682ZM10.2038 6.10371C10.8854 5.41722 11.3445 4.9571 11.7321 4.6593C12.1026 4.37463 12.3173 4.31104 12.5 4.31104V2.81104C11.8542 2.81104 11.3215 3.08315 10.8182 3.46989C10.3319 3.84349 9.79106 4.39049 9.13937 5.04682L10.2038 6.10371ZM10.9555 19.0197L10.9749 18.9167L9.50064 18.6399L9.4813 18.743L10.9555 19.0197ZM14.0251 18.9167L14.0445 19.0197L15.5187 18.743L15.4994 18.6399L14.0251 18.9167ZM13.8146 20.7906L13.6978 21.036L15.0522 21.6806L15.169 21.4352L13.8146 20.7906ZM9.831 21.4352L9.94778 21.6806L11.3022 21.036L11.1854 20.7906L9.831 21.4352ZM14.0445 19.0197C14.1571 19.6198 14.0764 20.2404 13.8146 20.7906L15.169 21.4352C15.5675 20.5979 15.6899 19.6548 15.5187 18.743L14.0445 19.0197ZM9.4813 18.743C9.31015 19.6548 9.43254 20.5979 9.831 21.4352L11.1854 20.7906C10.9236 20.2404 10.8429 19.6198 10.9556 19.0197L9.4813 18.743ZM12.0616 17.7263C12.3485 17.6467 12.6515 17.6467 12.9384 17.7263L13.3395 16.2809C12.7901 16.1285 12.2099 16.1285 11.6605 16.2809L12.0616 17.7263ZM15.4994 18.6399C15.2865 17.506 14.4504 16.5891 13.3395 16.2809L12.9384 17.7263C13.4935 17.8803 13.917 18.3405 14.0251 18.9167L15.4994 18.6399ZM10.9749 18.9167C11.083 18.3405 11.5065 17.8803 12.0616 17.7263L11.6605 16.2809C10.5496 16.5891 9.71349 17.506 9.50064 18.6399L10.9749 18.9167Z" fill="#FFC53A"/>
</svg>
