<svg width="21" height="21" viewBox="0 0 21 21" fill="none" xmlns="http://www.w3.org/2000/svg">
<path d="M1.85288 13.6106L1.1227 13.7819L1.85288 13.6106ZM1.85288 7.51147L1.1227 7.34019L1.85288 7.51147ZM19.1471 7.51147L18.4169 7.68275L19.1471 7.51147ZM19.1471 13.6106L18.4169 13.4393L19.1471 13.6106ZM13.5496 19.2082L13.3783 18.478L13.5496 19.2082ZM7.45044 19.2082L7.62171 18.478L7.45044 19.2082ZM7.45043 1.91391L7.62171 2.64409L7.45043 1.91391ZM13.5496 1.91391L13.3783 2.64409L13.5496 1.91391ZM6.35732 10.7838C6.04944 11.0609 6.02448 11.5351 6.30157 11.843C6.57867 12.1508 7.05289 12.1758 7.36077 11.8987L6.35732 10.7838ZM8.56556 9.80538L9.06728 10.3629L8.56556 9.80538ZM10.127 10.0016L10.7511 9.58554L10.127 10.0016ZM10.873 11.1205L10.2489 11.5365H10.2489L10.873 11.1205ZM12.4344 11.3167L11.9327 10.7592L12.4344 11.3167ZM14.6427 10.3383C14.9506 10.0612 14.9755 9.58699 14.6984 9.27911C14.4213 8.97122 13.9471 8.94627 13.6392 9.22336L14.6427 10.3383ZM11.5746 11.8485L11.4811 12.5927L11.5746 11.8485ZM9.42544 9.27354L9.33194 10.0177H9.33194L9.42544 9.27354ZM2.58306 13.4393C2.13898 11.5462 2.13898 9.57591 2.58306 7.68274L1.1227 7.34019C0.625768 9.45867 0.625768 11.6634 1.1227 13.7819L2.58306 13.4393ZM18.4169 7.68275C18.861 9.57591 18.861 11.5462 18.4169 13.4393L19.8773 13.7819C20.3742 11.6634 20.3742 9.45867 19.8773 7.34019L18.4169 7.68275ZM13.3783 18.478C11.4851 18.9221 9.51488 18.9221 7.62171 18.478L7.27916 19.9383C9.39764 20.4353 11.6024 20.4353 13.7208 19.9383L13.3783 18.478ZM7.62171 2.64409C9.51488 2.20002 11.4851 2.20002 13.3783 2.64409L13.7208 1.18373C11.6024 0.686803 9.39763 0.686803 7.27916 1.18373L7.62171 2.64409ZM7.62171 18.478C5.12161 17.8915 3.1695 15.9394 2.58306 13.4393L1.1227 13.7819C1.83924 16.8366 4.22441 19.2218 7.27916 19.9383L7.62171 18.478ZM13.7208 19.9383C16.7756 19.2218 19.1608 16.8366 19.8773 13.7819L18.4169 13.4393C17.8305 15.9394 15.8784 17.8915 13.3783 18.478L13.7208 19.9383ZM13.3783 2.64409C15.8784 3.23054 17.8305 5.18264 18.4169 7.68275L19.8773 7.34019C19.1608 4.28545 16.7756 1.90028 13.7208 1.18373L13.3783 2.64409ZM7.27916 1.18373C4.22441 1.90028 1.83924 4.28544 1.1227 7.34019L2.58306 7.68274C3.1695 5.18264 5.12161 3.23054 7.62171 2.64409L7.27916 1.18373ZM7.36077 11.8987L9.06728 10.3629L8.06383 9.24791L6.35732 10.7838L7.36077 11.8987ZM9.50298 10.4176L10.2489 11.5365L11.497 10.7045L10.7511 9.58554L9.50298 10.4176ZM12.9362 11.8742L14.6427 10.3383L13.6392 9.22336L11.9327 10.7592L12.9362 11.8742ZM10.2489 11.5365C10.3915 11.7504 10.5413 11.9783 10.6919 12.1471C10.8566 12.3318 11.1072 12.5457 11.4811 12.5927L11.6681 11.1044C11.727 11.1118 11.777 11.1331 11.81 11.1539C11.836 11.1704 11.8372 11.1777 11.8114 11.1488C11.7857 11.1199 11.7487 11.0729 11.6933 10.9943C11.6382 10.9162 11.5762 10.8233 11.497 10.7045L10.2489 11.5365ZM11.9327 10.7592C11.8266 10.8548 11.7435 10.9294 11.6708 10.9915C11.5977 11.0539 11.5503 11.0904 11.5181 11.112C11.4861 11.1336 11.489 11.1268 11.5183 11.1173C11.5554 11.1052 11.6091 11.097 11.6681 11.1044L11.4811 12.5927C11.8549 12.6397 12.1507 12.4944 12.3559 12.3562C12.5436 12.2299 12.7451 12.0461 12.9362 11.8742L11.9327 10.7592ZM9.06728 10.3629C9.17342 10.2673 9.25649 10.1926 9.32915 10.1306C9.40227 10.0682 9.44973 10.0317 9.48186 10.0101C9.51392 9.98849 9.51103 9.99528 9.48173 10.0048C9.44464 10.0168 9.39087 10.0251 9.33194 10.0177L9.51894 8.52939C9.14511 8.48242 8.84931 8.62766 8.64408 8.76585C8.45642 8.89221 8.2549 9.07595 8.06383 9.24791L9.06728 10.3629ZM10.7511 9.58554C10.6085 9.37166 10.4587 9.14378 10.3081 8.97492C10.1434 8.79026 9.89276 8.57636 9.51893 8.52939L9.33194 10.0177C9.273 10.0103 9.22295 9.98899 9.18999 9.96814C9.16396 9.95167 9.16283 9.94438 9.18856 9.97324C9.21434 10.0021 9.2513 10.0492 9.30671 10.1278C9.36177 10.2059 9.42377 10.2988 9.50298 10.4176L10.7511 9.58554Z" fill="#8F8F8F"/>
</svg>
