<svg width="25" height="25" viewBox="0 0 25 25" fill="none" xmlns="http://www.w3.org/2000/svg">
<path d="M5.5 19.6725C5.5 17.2594 7.19732 15.204 9.50404 14.8237L9.71182 14.7894C11.5589 14.4849 13.4411 14.4849 15.2882 14.7894L15.496 14.8237C17.8027 15.204 19.5 17.2594 19.5 19.6725C19.5 20.7155 18.6815 21.561 17.6719 21.561H7.32813C6.31848 21.561 5.5 20.7155 5.5 19.6725Z" stroke="#8F8F8F" stroke-width="1.5"/>
<path d="M16.5834 7.49854C16.5834 9.67316 14.7552 11.436 12.5 11.436C10.2449 11.436 8.41669 9.67316 8.41669 7.49854C8.41669 5.32391 10.2449 3.56104 12.5 3.56104C14.7552 3.56104 16.5834 5.32391 16.5834 7.49854Z" stroke="#8F8F8F" stroke-width="1.5"/>
</svg>
